<svg width="680" height="467" viewBox="0 0 680 467" fill="none" xmlns="http://www.w3.org/2000/svg">
<path d="M11.064 19.872L0.84 13.896V12.744L10.992 7.392V9.096L2.664 13.344L11.064 18.048V19.872ZM17.616 21.24C17.056 21.24 16.504 21.12 15.96 20.88C15.432 20.64 14.944 20.28 14.496 19.8C14.064 19.32 13.72 18.712 13.464 17.976C13.208 17.24 13.08 16.384 13.08 15.408C13.08 14.4 13.216 13.544 13.488 12.84C13.76 12.12 14.12 11.536 14.568 11.088C15.016 10.624 15.512 10.288 16.056 10.08C16.6 9.856 17.152 9.744 17.712 9.744C18.224 9.744 18.68 9.824 19.08 9.984C19.496 10.144 19.856 10.368 20.16 10.656C20.48 10.928 20.728 11.256 20.904 11.64V5.04H22.488H22.728V5.208C22.632 5.304 22.568 5.408 22.536 5.52C22.52 5.632 22.512 5.824 22.512 6.096L22.536 19.296C22.536 19.584 22.544 19.872 22.56 20.16C22.592 20.432 22.664 20.712 22.776 21H21.072C20.992 20.808 20.936 20.616 20.904 20.424C20.872 20.232 20.848 20.048 20.832 19.872C20.832 19.68 20.832 19.488 20.832 19.296C20.608 19.68 20.336 20.024 20.016 20.328C19.696 20.616 19.336 20.84 18.936 21C18.536 21.16 18.096 21.24 17.616 21.24ZM17.88 19.728C18.408 19.728 18.856 19.624 19.224 19.416C19.592 19.192 19.888 18.888 20.112 18.504C20.336 18.104 20.496 17.648 20.592 17.136C20.704 16.608 20.76 16.048 20.76 15.456C20.76 14.64 20.656 13.912 20.448 13.272C20.24 12.616 19.912 12.104 19.464 11.736C19.016 11.352 18.44 11.16 17.736 11.16C17.256 11.16 16.824 11.256 16.44 11.448C16.072 11.624 15.76 11.888 15.504 12.24C15.264 12.592 15.08 13.016 14.952 13.512C14.824 13.992 14.76 14.536 14.76 15.144C14.76 16.056 14.88 16.856 15.12 17.544C15.36 18.232 15.712 18.768 16.176 19.152C16.64 19.536 17.208 19.728 17.88 19.728ZM30.528 21.24C29.728 21.24 29 21.12 28.344 20.88C27.688 20.624 27.12 20.256 26.64 19.776C26.176 19.296 25.816 18.704 25.56 18C25.304 17.28 25.176 16.464 25.176 15.552C25.176 14.624 25.304 13.8 25.56 13.08C25.832 12.36 26.192 11.76 26.64 11.28C27.104 10.784 27.64 10.408 28.248 10.152C28.872 9.896 29.528 9.768 30.216 9.768C30.84 9.768 31.424 9.872 31.968 10.08C32.512 10.288 32.984 10.608 33.384 11.04C33.784 11.456 34.096 11.992 34.32 12.648C34.56 13.304 34.68 14.08 34.68 14.976C34.68 15.104 34.672 15.24 34.656 15.384C34.656 15.512 34.648 15.64 34.632 15.768H26.832C26.864 16.472 26.984 17.088 27.192 17.616C27.4 18.128 27.672 18.552 28.008 18.888C28.344 19.208 28.728 19.448 29.16 19.608C29.608 19.768 30.08 19.848 30.576 19.848C30.96 19.848 31.32 19.808 31.656 19.728C31.992 19.632 32.304 19.496 32.592 19.32C32.896 19.128 33.168 18.896 33.408 18.624L34.368 19.56C34.064 19.928 33.712 20.24 33.312 20.496C32.928 20.752 32.504 20.936 32.04 21.048C31.576 21.176 31.072 21.24 30.528 21.24ZM26.904 14.424H32.928C32.928 13.912 32.856 13.456 32.712 13.056C32.584 12.64 32.392 12.288 32.136 12C31.896 11.696 31.6 11.472 31.248 11.328C30.912 11.168 30.528 11.088 30.096 11.088C29.712 11.088 29.344 11.152 28.992 11.28C28.656 11.408 28.344 11.616 28.056 11.904C27.768 12.176 27.52 12.52 27.312 12.936C27.12 13.352 26.984 13.848 26.904 14.424ZM41.304 21L36.96 10.032H38.688L42.24 19.032H41.904L43.848 14.568C44.232 13.688 44.536 12.872 44.76 12.12C45 11.368 45.176 10.672 45.288 10.032H46.92C46.792 10.704 46.592 11.44 46.32 12.24C46.048 13.04 45.712 13.904 45.312 14.832L42.648 21H41.304ZM54.528 21.24C53.728 21.24 53 21.12 52.344 20.88C51.688 20.624 51.12 20.256 50.64 19.776C50.176 19.296 49.816 18.704 49.56 18C49.304 17.28 49.176 16.464 49.176 15.552C49.176 14.624 49.304 13.8 49.56 13.08C49.832 12.36 50.192 11.76 50.64 11.28C51.104 10.784 51.64 10.408 52.248 10.152C52.872 9.896 53.528 9.768 54.216 9.768C54.84 9.768 55.424 9.872 55.968 10.08C56.512 10.288 56.984 10.608 57.384 11.04C57.784 11.456 58.096 11.992 58.32 12.648C58.56 13.304 58.68 14.08 58.68 14.976C58.68 15.104 58.672 15.24 58.656 15.384C58.656 15.512 58.648 15.64 58.632 15.768H50.832C50.864 16.472 50.984 17.088 51.192 17.616C51.4 18.128 51.672 18.552 52.008 18.888C52.344 19.208 52.728 19.448 53.16 19.608C53.608 19.768 54.08 19.848 54.576 19.848C54.96 19.848 55.32 19.808 55.656 19.728C55.992 19.632 56.304 19.496 56.592 19.32C56.896 19.128 57.168 18.896 57.408 18.624L58.368 19.56C58.064 19.928 57.712 20.24 57.312 20.496C56.928 20.752 56.504 20.936 56.04 21.048C55.576 21.176 55.072 21.24 54.528 21.24ZM50.904 14.424H56.928C56.928 13.912 56.856 13.456 56.712 13.056C56.584 12.64 56.392 12.288 56.136 12C55.896 11.696 55.6 11.472 55.248 11.328C54.912 11.168 54.528 11.088 54.096 11.088C53.712 11.088 53.344 11.152 52.992 11.28C52.656 11.408 52.344 11.616 52.056 11.904C51.768 12.176 51.52 12.52 51.312 12.936C51.12 13.352 50.984 13.848 50.904 14.424ZM61.896 21V19.608H65.136V6.432H62.04V5.04H66.888V19.608H70.104V21H61.896ZM78 21.192C77.008 21.192 76.128 20.952 75.36 20.472C74.608 19.976 74.016 19.304 73.584 18.456C73.152 17.592 72.936 16.608 72.936 15.504C72.936 14.384 73.152 13.4 73.584 12.552C74.016 11.688 74.608 11.016 75.36 10.536C76.128 10.04 77.008 9.792 78 9.792C78.992 9.792 79.864 10.04 80.616 10.536C81.384 11.016 81.984 11.688 82.416 12.552C82.848 13.4 83.064 14.384 83.064 15.504C83.064 16.608 82.848 17.592 82.416 18.456C81.984 19.304 81.384 19.976 80.616 20.472C79.864 20.952 78.992 21.192 78 21.192ZM78 19.752C78.64 19.752 79.2 19.568 79.68 19.2C80.16 18.832 80.536 18.328 80.808 17.688C81.096 17.048 81.24 16.312 81.24 15.48C81.24 14.648 81.096 13.912 80.808 13.272C80.536 12.632 80.16 12.136 79.68 11.784C79.2 11.416 78.64 11.232 78 11.232C77.376 11.232 76.816 11.416 76.32 11.784C75.84 12.136 75.456 12.632 75.168 13.272C74.896 13.912 74.76 14.648 74.76 15.48C74.76 16.312 74.896 17.048 75.168 17.688C75.456 18.328 75.84 18.832 76.32 19.2C76.816 19.568 77.376 19.752 78 19.752ZM85.44 25.008V10.032H87.192V12.192C87.368 11.632 87.616 11.176 87.936 10.824C88.272 10.472 88.656 10.216 89.088 10.056C89.536 9.88 90.016 9.792 90.528 9.792C91.136 9.792 91.712 9.912 92.256 10.152C92.816 10.376 93.304 10.72 93.72 11.184C94.152 11.648 94.488 12.232 94.728 12.936C94.984 13.64 95.112 14.472 95.112 15.432C95.112 16.392 94.976 17.24 94.704 17.976C94.448 18.712 94.096 19.328 93.648 19.824C93.216 20.304 92.72 20.672 92.16 20.928C91.616 21.168 91.056 21.288 90.48 21.288C90.048 21.288 89.624 21.216 89.208 21.072C88.808 20.944 88.44 20.752 88.104 20.496C87.768 20.224 87.472 19.912 87.216 19.56V25.008H85.44ZM90.192 19.752C90.576 19.752 90.952 19.688 91.32 19.56C91.688 19.416 92.024 19.184 92.328 18.864C92.632 18.544 92.872 18.112 93.048 17.568C93.224 17.008 93.312 16.32 93.312 15.504C93.312 14.624 93.2 13.88 92.976 13.272C92.752 12.648 92.424 12.168 91.992 11.832C91.576 11.496 91.064 11.312 90.456 11.28C90.008 11.248 89.584 11.312 89.184 11.472C88.8 11.632 88.456 11.896 88.152 12.264C87.848 12.632 87.608 13.12 87.432 13.728C87.272 14.32 87.192 15.04 87.192 15.888C87.208 16.4 87.264 16.864 87.36 17.28C87.456 17.696 87.592 18.064 87.768 18.384C87.944 18.688 88.152 18.944 88.392 19.152C88.632 19.344 88.904 19.496 89.208 19.608C89.512 19.704 89.84 19.752 90.192 19.752ZM102.528 21.24C101.728 21.24 101 21.12 100.344 20.88C99.688 20.624 99.12 20.256 98.64 19.776C98.176 19.296 97.816 18.704 97.56 18C97.304 17.28 97.176 16.464 97.176 15.552C97.176 14.624 97.304 13.8 97.56 13.08C97.832 12.36 98.192 11.76 98.64 11.28C99.104 10.784 99.64 10.408 100.248 10.152C100.872 9.896 101.528 9.768 102.216 9.768C102.84 9.768 103.424 9.872 103.968 10.08C104.512 10.288 104.984 10.608 105.384 11.04C105.784 11.456 106.096 11.992 106.32 12.648C106.56 13.304 106.68 14.08 106.68 14.976C106.68 15.104 106.672 15.24 106.656 15.384C106.656 15.512 106.648 15.64 106.632 15.768H98.832C98.864 16.472 98.984 17.088 99.192 17.616C99.4 18.128 99.672 18.552 100.008 18.888C100.344 19.208 100.728 19.448 101.16 19.608C101.608 19.768 102.08 19.848 102.576 19.848C102.96 19.848 103.32 19.808 103.656 19.728C103.992 19.632 104.304 19.496 104.592 19.32C104.896 19.128 105.168 18.896 105.408 18.624L106.368 19.56C106.064 19.928 105.712 20.24 105.312 20.496C104.928 20.752 104.504 20.936 104.04 21.048C103.576 21.176 103.072 21.24 102.528 21.24ZM98.904 14.424H104.928C104.928 13.912 104.856 13.456 104.712 13.056C104.584 12.64 104.392 12.288 104.136 12C103.896 11.696 103.6 11.472 103.248 11.328C102.912 11.168 102.528 11.088 102.096 11.088C101.712 11.088 101.344 11.152 100.992 11.28C100.656 11.408 100.344 11.616 100.056 11.904C99.768 12.176 99.52 12.52 99.312 12.936C99.12 13.352 98.984 13.848 98.904 14.424ZM110.856 10.032H112.656L112.584 13.224L112.368 12.864C112.464 12.368 112.632 11.928 112.872 11.544C113.112 11.16 113.4 10.84 113.736 10.584C114.072 10.312 114.44 10.112 114.84 9.984C115.24 9.84 115.656 9.768 116.088 9.768C116.664 9.768 117.192 9.872 117.672 10.08C118.168 10.272 118.608 10.568 118.992 10.968L118.224 12.312L118.128 12.528L117.96 12.432C117.928 12.304 117.88 12.184 117.816 12.072C117.752 11.96 117.616 11.824 117.408 11.664C117.152 11.504 116.912 11.4 116.688 11.352C116.48 11.288 116.24 11.256 115.968 11.256C115.568 11.256 115.168 11.336 114.768 11.496C114.368 11.64 114 11.872 113.664 12.192C113.344 12.512 113.088 12.92 112.896 13.416C112.704 13.912 112.608 14.504 112.608 15.192V21.024H110.856V10.032ZM120.96 19.872V18.048L129.336 13.344L121.008 9.096V7.392L131.184 12.744V13.896L120.96 19.872Z" fill="#EDD70D"/>
<path d="M131.064 125.872L120.84 119.896V118.744L130.992 113.392V115.096L122.664 119.344L131.064 124.048V125.872ZM133.752 111.04H135.408H135.648V111.208C135.552 111.304 135.488 111.408 135.456 111.52C135.44 111.632 135.432 111.824 135.432 112.096V117.976C135.72 117.528 136.056 117.144 136.44 116.824C136.84 116.488 137.256 116.232 137.688 116.056C138.136 115.864 138.584 115.768 139.032 115.768C139.688 115.768 140.264 115.92 140.76 116.224C141.272 116.528 141.664 117.016 141.936 117.688C142.224 118.36 142.368 119.248 142.368 120.352V127H140.688V120.4C140.688 119.632 140.6 119.024 140.424 118.576C140.248 118.112 140.008 117.784 139.704 117.592C139.4 117.384 139.056 117.28 138.672 117.28C138.384 117.28 138.088 117.328 137.784 117.424C137.48 117.52 137.184 117.664 136.896 117.856C136.624 118.048 136.376 118.288 136.152 118.576C135.928 118.848 135.752 119.16 135.624 119.512C135.496 119.864 135.432 120.256 135.432 120.688V127H133.752V111.04ZM149.52 127V114.112L146.496 115L146.112 114.064L150.024 112.024H151.2V127H149.52ZM156.96 125.872V124.048L165.336 119.344L157.008 115.096V113.392L167.184 118.744V119.896L156.96 125.872Z" fill="#EDD70D"/>
<path d="M602.064 207.872L591.84 201.896V200.744L601.992 195.392V197.096L593.664 201.344L602.064 206.048V207.872ZM605.952 210.008L604.536 209.312L612.048 193.04L613.488 193.784L605.952 210.008ZM616.752 193.04H618.408H618.648V193.208C618.552 193.304 618.488 193.408 618.456 193.52C618.44 193.632 618.432 193.824 618.432 194.096V199.976C618.72 199.528 619.056 199.144 619.44 198.824C619.84 198.488 620.256 198.232 620.688 198.056C621.136 197.864 621.584 197.768 622.032 197.768C622.688 197.768 623.264 197.92 623.76 198.224C624.272 198.528 624.664 199.016 624.936 199.688C625.224 200.36 625.368 201.248 625.368 202.352V209H623.688V202.4C623.688 201.632 623.6 201.024 623.424 200.576C623.248 200.112 623.008 199.784 622.704 199.592C622.4 199.384 622.056 199.28 621.672 199.28C621.384 199.28 621.088 199.328 620.784 199.424C620.48 199.52 620.184 199.664 619.896 199.856C619.624 200.048 619.376 200.288 619.152 200.576C618.928 200.848 618.752 201.16 618.624 201.512C618.496 201.864 618.432 202.256 618.432 202.688V209H616.752V193.04ZM632.52 209V196.112L629.496 197L629.112 196.064L633.024 194.024H634.2V209H632.52ZM639.96 207.872V206.048L648.336 201.344L640.008 197.096V195.392L650.184 200.744V201.896L639.96 207.872Z" fill="#EDD70D"/>
<path d="M547.064 460.872L536.84 454.896V453.744L546.992 448.392V450.096L538.664 454.344L547.064 459.048V460.872ZM550.952 463.008L549.536 462.312L557.048 446.04L558.488 446.784L550.952 463.008ZM565.616 462.24C565.056 462.24 564.504 462.12 563.96 461.88C563.432 461.64 562.944 461.28 562.496 460.8C562.064 460.32 561.72 459.712 561.464 458.976C561.208 458.24 561.08 457.384 561.08 456.408C561.08 455.4 561.216 454.544 561.488 453.84C561.76 453.12 562.12 452.536 562.568 452.088C563.016 451.624 563.512 451.288 564.056 451.08C564.6 450.856 565.152 450.744 565.712 450.744C566.224 450.744 566.68 450.824 567.08 450.984C567.496 451.144 567.856 451.368 568.16 451.656C568.48 451.928 568.728 452.256 568.904 452.64V446.04H570.488H570.728V446.208C570.632 446.304 570.568 446.408 570.536 446.52C570.52 446.632 570.512 446.824 570.512 447.096L570.536 460.296C570.536 460.584 570.544 460.872 570.56 461.16C570.592 461.432 570.664 461.712 570.776 462H569.072C568.992 461.808 568.936 461.616 568.904 461.424C568.872 461.232 568.848 461.048 568.832 460.872C568.832 460.68 568.832 460.488 568.832 460.296C568.608 460.68 568.336 461.024 568.016 461.328C567.696 461.616 567.336 461.84 566.936 462C566.536 462.16 566.096 462.24 565.616 462.24ZM565.88 460.728C566.408 460.728 566.856 460.624 567.224 460.416C567.592 460.192 567.888 459.888 568.112 459.504C568.336 459.104 568.496 458.648 568.592 458.136C568.704 457.608 568.76 457.048 568.76 456.456C568.76 455.64 568.656 454.912 568.448 454.272C568.24 453.616 567.912 453.104 567.464 452.736C567.016 452.352 566.44 452.16 565.736 452.16C565.256 452.16 564.824 452.256 564.44 452.448C564.072 452.624 563.76 452.888 563.504 453.24C563.264 453.592 563.08 454.016 562.952 454.512C562.824 454.992 562.76 455.536 562.76 456.144C562.76 457.056 562.88 457.856 563.12 458.544C563.36 459.232 563.712 459.768 564.176 460.152C564.64 460.536 565.208 460.728 565.88 460.728ZM578.528 462.24C577.728 462.24 577 462.12 576.344 461.88C575.688 461.624 575.12 461.256 574.64 460.776C574.176 460.296 573.816 459.704 573.56 459C573.304 458.28 573.176 457.464 573.176 456.552C573.176 455.624 573.304 454.8 573.56 454.08C573.832 453.36 574.192 452.76 574.64 452.28C575.104 451.784 575.64 451.408 576.248 451.152C576.872 450.896 577.528 450.768 578.216 450.768C578.84 450.768 579.424 450.872 579.968 451.08C580.512 451.288 580.984 451.608 581.384 452.04C581.784 452.456 582.096 452.992 582.32 453.648C582.56 454.304 582.68 455.08 582.68 455.976C582.68 456.104 582.672 456.24 582.656 456.384C582.656 456.512 582.648 456.64 582.632 456.768H574.832C574.864 457.472 574.984 458.088 575.192 458.616C575.4 459.128 575.672 459.552 576.008 459.888C576.344 460.208 576.728 460.448 577.16 460.608C577.608 460.768 578.08 460.848 578.576 460.848C578.96 460.848 579.32 460.808 579.656 460.728C579.992 460.632 580.304 460.496 580.592 460.32C580.896 460.128 581.168 459.896 581.408 459.624L582.368 460.56C582.064 460.928 581.712 461.24 581.312 461.496C580.928 461.752 580.504 461.936 580.04 462.048C579.576 462.176 579.072 462.24 578.528 462.24ZM574.904 455.424H580.928C580.928 454.912 580.856 454.456 580.712 454.056C580.584 453.64 580.392 453.288 580.136 453C579.896 452.696 579.6 452.472 579.248 452.328C578.912 452.168 578.528 452.088 578.096 452.088C577.712 452.088 577.344 452.152 576.992 452.28C576.656 452.408 576.344 452.616 576.056 452.904C575.768 453.176 575.52 453.52 575.312 453.936C575.12 454.352 574.984 454.848 574.904 455.424ZM589.304 462L584.96 451.032H586.688L590.24 460.032H589.904L591.848 455.568C592.232 454.688 592.536 453.872 592.76 453.12C593 452.368 593.176 451.672 593.288 451.032H594.92C594.792 451.704 594.592 452.44 594.32 453.24C594.048 454.04 593.712 454.904 593.312 455.832L590.648 462H589.304ZM602.528 462.24C601.728 462.24 601 462.12 600.344 461.88C599.688 461.624 599.12 461.256 598.64 460.776C598.176 460.296 597.816 459.704 597.56 459C597.304 458.28 597.176 457.464 597.176 456.552C597.176 455.624 597.304 454.8 597.56 454.08C597.832 453.36 598.192 452.76 598.64 452.28C599.104 451.784 599.64 451.408 600.248 451.152C600.872 450.896 601.528 450.768 602.216 450.768C602.84 450.768 603.424 450.872 603.968 451.08C604.512 451.288 604.984 451.608 605.384 452.04C605.784 452.456 606.096 452.992 606.32 453.648C606.56 454.304 606.68 455.08 606.68 455.976C606.68 456.104 606.672 456.24 606.656 456.384C606.656 456.512 606.648 456.64 606.632 456.768H598.832C598.864 457.472 598.984 458.088 599.192 458.616C599.4 459.128 599.672 459.552 600.008 459.888C600.344 460.208 600.728 460.448 601.16 460.608C601.608 460.768 602.08 460.848 602.576 460.848C602.96 460.848 603.32 460.808 603.656 460.728C603.992 460.632 604.304 460.496 604.592 460.32C604.896 460.128 605.168 459.896 605.408 459.624L606.368 460.56C606.064 460.928 605.712 461.24 605.312 461.496C604.928 461.752 604.504 461.936 604.04 462.048C603.576 462.176 603.072 462.24 602.528 462.24ZM598.904 455.424H604.928C604.928 454.912 604.856 454.456 604.712 454.056C604.584 453.64 604.392 453.288 604.136 453C603.896 452.696 603.6 452.472 603.248 452.328C602.912 452.168 602.528 452.088 602.096 452.088C601.712 452.088 601.344 452.152 600.992 452.28C600.656 452.408 600.344 452.616 600.056 452.904C599.768 453.176 599.52 453.52 599.312 453.936C599.12 454.352 598.984 454.848 598.904 455.424ZM609.896 462V460.608H613.136V447.432H610.04V446.04H614.888V460.608H618.104V462H609.896ZM626 462.192C625.008 462.192 624.128 461.952 623.36 461.472C622.608 460.976 622.016 460.304 621.584 459.456C621.152 458.592 620.936 457.608 620.936 456.504C620.936 455.384 621.152 454.4 621.584 453.552C622.016 452.688 622.608 452.016 623.36 451.536C624.128 451.04 625.008 450.792 626 450.792C626.992 450.792 627.864 451.04 628.616 451.536C629.384 452.016 629.984 452.688 630.416 453.552C630.848 454.4 631.064 455.384 631.064 456.504C631.064 457.608 630.848 458.592 630.416 459.456C629.984 460.304 629.384 460.976 628.616 461.472C627.864 461.952 626.992 462.192 626 462.192ZM626 460.752C626.64 460.752 627.2 460.568 627.68 460.2C628.16 459.832 628.536 459.328 628.808 458.688C629.096 458.048 629.24 457.312 629.24 456.48C629.24 455.648 629.096 454.912 628.808 454.272C628.536 453.632 628.16 453.136 627.68 452.784C627.2 452.416 626.64 452.232 626 452.232C625.376 452.232 624.816 452.416 624.32 452.784C623.84 453.136 623.456 453.632 623.168 454.272C622.896 454.912 622.76 455.648 622.76 456.48C622.76 457.312 622.896 458.048 623.168 458.688C623.456 459.328 623.84 459.832 624.32 460.2C624.816 460.568 625.376 460.752 626 460.752ZM633.44 466.008V451.032H635.192V453.192C635.368 452.632 635.616 452.176 635.936 451.824C636.272 451.472 636.656 451.216 637.088 451.056C637.536 450.88 638.016 450.792 638.528 450.792C639.136 450.792 639.712 450.912 640.256 451.152C640.816 451.376 641.304 451.72 641.72 452.184C642.152 452.648 642.488 453.232 642.728 453.936C642.984 454.64 643.112 455.472 643.112 456.432C643.112 457.392 642.976 458.24 642.704 458.976C642.448 459.712 642.096 460.328 641.648 460.824C641.216 461.304 640.72 461.672 640.16 461.928C639.616 462.168 639.056 462.288 638.48 462.288C638.048 462.288 637.624 462.216 637.208 462.072C636.808 461.944 636.44 461.752 636.104 461.496C635.768 461.224 635.472 460.912 635.216 460.56V466.008H633.44ZM638.192 460.752C638.576 460.752 638.952 460.688 639.32 460.56C639.688 460.416 640.024 460.184 640.328 459.864C640.632 459.544 640.872 459.112 641.048 458.568C641.224 458.008 641.312 457.32 641.312 456.504C641.312 455.624 641.2 454.88 640.976 454.272C640.752 453.648 640.424 453.168 639.992 452.832C639.576 452.496 639.064 452.312 638.456 452.28C638.008 452.248 637.584 452.312 637.184 452.472C636.8 452.632 636.456 452.896 636.152 453.264C635.848 453.632 635.608 454.12 635.432 454.728C635.272 455.32 635.192 456.04 635.192 456.888C635.208 457.4 635.264 457.864 635.36 458.28C635.456 458.696 635.592 459.064 635.768 459.384C635.944 459.688 636.152 459.944 636.392 460.152C636.632 460.344 636.904 460.496 637.208 460.608C637.512 460.704 637.84 460.752 638.192 460.752ZM650.528 462.24C649.728 462.24 649 462.12 648.344 461.88C647.688 461.624 647.12 461.256 646.64 460.776C646.176 460.296 645.816 459.704 645.56 459C645.304 458.28 645.176 457.464 645.176 456.552C645.176 455.624 645.304 454.8 645.56 454.08C645.832 453.36 646.192 452.76 646.64 452.28C647.104 451.784 647.64 451.408 648.248 451.152C648.872 450.896 649.528 450.768 650.216 450.768C650.84 450.768 651.424 450.872 651.968 451.08C652.512 451.288 652.984 451.608 653.384 452.04C653.784 452.456 654.096 452.992 654.32 453.648C654.56 454.304 654.68 455.08 654.68 455.976C654.68 456.104 654.672 456.24 654.656 456.384C654.656 456.512 654.648 456.64 654.632 456.768H646.832C646.864 457.472 646.984 458.088 647.192 458.616C647.4 459.128 647.672 459.552 648.008 459.888C648.344 460.208 648.728 460.448 649.16 460.608C649.608 460.768 650.08 460.848 650.576 460.848C650.96 460.848 651.32 460.808 651.656 460.728C651.992 460.632 652.304 460.496 652.592 460.32C652.896 460.128 653.168 459.896 653.408 459.624L654.368 460.56C654.064 460.928 653.712 461.24 653.312 461.496C652.928 461.752 652.504 461.936 652.04 462.048C651.576 462.176 651.072 462.24 650.528 462.24ZM646.904 455.424H652.928C652.928 454.912 652.856 454.456 652.712 454.056C652.584 453.64 652.392 453.288 652.136 453C651.896 452.696 651.6 452.472 651.248 452.328C650.912 452.168 650.528 452.088 650.096 452.088C649.712 452.088 649.344 452.152 648.992 452.28C648.656 452.408 648.344 452.616 648.056 452.904C647.768 453.176 647.52 453.52 647.312 453.936C647.12 454.352 646.984 454.848 646.904 455.424ZM658.856 451.032H660.656L660.584 454.224L660.368 453.864C660.464 453.368 660.632 452.928 660.872 452.544C661.112 452.16 661.4 451.84 661.736 451.584C662.072 451.312 662.44 451.112 662.84 450.984C663.24 450.84 663.656 450.768 664.088 450.768C664.664 450.768 665.192 450.872 665.672 451.08C666.168 451.272 666.608 451.568 666.992 451.968L666.224 453.312L666.128 453.528L665.96 453.432C665.928 453.304 665.88 453.184 665.816 453.072C665.752 452.96 665.616 452.824 665.408 452.664C665.152 452.504 664.912 452.4 664.688 452.352C664.48 452.288 664.24 452.256 663.968 452.256C663.568 452.256 663.168 452.336 662.768 452.496C662.368 452.64 662 452.872 661.664 453.192C661.344 453.512 661.088 453.92 660.896 454.416C660.704 454.912 660.608 455.504 660.608 456.192V462.024H658.856V451.032ZM668.96 460.872V459.048L677.336 454.344L669.008 450.096V448.392L679.184 453.744V454.896L668.96 460.872Z" fill="#EDD70D"/>
</svg>
