<svg width="1037" height="864" viewBox="0 0 1037 864" fill="none" xmlns="http://www.w3.org/2000/svg">
<path d="M337 108.5C337 128.658 320.658 145 300.5 145C280.342 145 264 128.658 264 108.5C264 88.3416 280.342 72 300.5 72C320.658 72 337 88.3416 337 108.5Z" stroke="#EDD70D" stroke-width="30"/>
<path d="M880 834.5C880 845.27 871.27 854 860.5 854C849.73 854 841 845.27 841 834.5C841 823.73 849.73 815 860.5 815C871.27 815 880 823.73 880 834.5Z" stroke="#EDD70D" stroke-width="20"/>
<path d="M846.289 120.412L823.3 110.068L811.232 136.888L784.412 124.82L774.068 147.809L800.888 159.877L788.82 186.697L811.809 197.041L823.877 170.221L850.697 182.289L861.041 159.3L834.221 147.232L846.289 120.412Z" fill="#EDD70D"/>
<path d="M655.285 807.299L660.843 793.56L644.814 787.074L651.299 771.044L637.559 765.485L631.074 781.515L615.044 775.03L609.485 788.77L625.515 795.255L619.03 811.285L632.769 816.844L639.255 800.814L655.285 807.299Z" fill="#EDD70D"/>
<path d="M978 318.004C990.235 308.061 1008.21 309.919 1018.16 322.154C1028.1 334.389 1026.24 352.369 1014.01 362.312" stroke="#EDD70D" stroke-width="23"/>
<path d="M897.051 584.134L923.396 623.713L893.895 660.999L849.317 644.464L851.268 596.959L897.051 584.134Z" fill="#EDD70D"/>
<path d="M885.927 570.723L929.769 558.441L954.998 596.343L926.747 632.048L884.059 616.214L885.927 570.723Z" stroke="#EDD70D" stroke-width="5"/>
<path d="M839.927 155.767L854 134.93L869.965 145.713L855.893 166.55L854.774 168.207L856.431 169.326L877.268 183.399L866.485 199.364L845.649 185.292L843.991 184.173L842.872 185.83L828.8 206.667L812.834 195.884L826.906 175.048L828.025 173.39L826.368 172.271L805.531 158.199L816.314 142.233L837.151 156.305L838.808 157.424L839.927 155.767Z" stroke="#EDD70D" stroke-width="4"/>
<path d="M144.73 206.863L138.763 190.066L151.007 185.717L156.974 202.514L157.643 204.399L159.528 203.73L176.325 197.763L180.674 210.007L163.877 215.974L161.992 216.643L162.661 218.528L168.628 235.325L156.384 239.674L150.417 222.877L149.748 220.992L147.863 221.661L131.066 227.627L126.717 215.384L143.514 209.417L145.399 208.748L144.73 206.863Z" stroke="#EDD70D" stroke-width="4"/>
<circle cx="353.5" cy="20.5" r="18" stroke="#EDD70D" stroke-width="5"/>
<path d="M187.681 704.48L246.14 655.53L259.302 730.631L187.681 704.48Z" fill="#EDD70D"/>
<path d="M30.9436 97.9344L28.2165 37.6217L81.8124 65.4163L30.9436 97.9344Z" fill="#EDD70D"/>
<path d="M207.322 669.833L159.271 676.597L177.439 631.602L207.322 669.833Z" stroke="#EDD70D" stroke-width="5"/>
</svg>
